<svg id="visual" viewBox="0 0 960 540" xmlns="http://www.w3.org/2000/svg">
    <rect x="0" y="0" width="960" height="540" fill="#23292a"></rect>
    <g transform="translate(960, 0)">
        <path d="M0 364C-52.5 367.2 -105.1 370.4 -144.7 349.2C-184.2 328.1 -210.8 282.5 -246.1 246.1C-281.3 209.6 -325.2 182.2 -344.6 142.7C-364 103.2 -359 51.6 -354 0L0 0Z" fill="#313b3c"></path>
        <path d="M0 291.2C-42 293.8 -84.1 296.3 -115.7 279.4C-147.4 262.4 -168.7 226 -196.9 196.9C-225 167.7 -260.1 145.8 -275.7 114.2C-291.2 82.6 -287.2 41.3 -283.2 0L0 0Z" fill="#51625f"></path>
        <path d="M0 218.4C-31.5 220.3 -63 222.2 -86.8 209.5C-110.5 196.8 -126.5 169.5 -147.6 147.6C-168.8 125.8 -195.1 109.3 -206.8 85.6C-218.4 61.9 -215.4 31 -212.4 0L0 0Z" fill="#758b82"></path>
        <path d="M0 145.6C-21 146.9 -42 148.2 -57.9 139.7C-73.7 131.2 -84.3 113 -98.4 98.4C-112.5 83.8 -130.1 72.9 -137.8 57.1C-145.6 41.3 -143.6 20.6 -141.6 0L0 0Z" fill="#a1b6a3"></path>
        <path d="M0 72.8C-10.5 73.4 -21 74.1 -28.9 69.8C-36.8 65.6 -42.2 56.5 -49.2 49.2C-56.3 41.9 -65 36.4 -68.9 28.5C-72.8 20.6 -71.8 10.3 -70.8 0L0 0Z" fill="#b9ccb4"></path>
    </g>
    <g transform="translate(0, 540)">
        <path d="M0 -358C48.7 -356.2 97.5 -354.4 138.9 -335.4C180.4 -316.4 214.5 -280.2 244.7 -244.7C274.8 -209.1 300.9 -174.2 322.4 -133.6C344 -92.9 361 -46.4 378 0L0 0Z" fill="#313b3c"></path>
        <path d="M0 -286.4C39 -284.9 78 -283.5 111.1 -268.3C144.3 -253.1 171.6 -224.2 195.7 -195.7C219.8 -167.3 240.7 -139.4 257.9 -106.8C275.2 -74.3 288.8 -37.2 302.4 0L0 0Z" fill="#51625f"></path>
        <path d="M0 -214.8C29.2 -213.7 58.5 -212.6 83.3 -201.2C108.2 -189.8 128.7 -168.1 146.8 -146.8C164.9 -125.5 180.5 -104.5 193.5 -80.1C206.4 -55.7 216.6 -27.9 226.8 0L0 0Z" fill="#758b82"></path>
        <path d="M0 -143.2C19.5 -142.5 39 -141.7 55.6 -134.1C72.1 -126.5 85.8 -112.1 97.9 -97.9C109.9 -83.6 120.4 -69.7 129 -53.4C137.6 -37.2 144.4 -18.6 151.2 0L0 0Z" fill="#a1b6a3"></path>
        <path d="M0 -71.6C9.7 -71.2 19.5 -70.9 27.8 -67.1C36.1 -63.3 42.9 -56 48.9 -48.9C55 -41.8 60.2 -34.8 64.5 -26.7C68.8 -18.6 72.2 -9.3 75.6 0L0 0Z" fill="#b9ccb4"></path>
    </g>
</svg>