<!--?xml version="1.0" standalone="no"?-->              <svg id="sw-js-blob-svg" viewBox="0 0 100 100" xmlns="http://www.w3.org/2000/svg" version="1.1">                    <defs>                         <linearGradient id="sw-gradient" x1="0" x2="1" y1="1" y2="0">                            <stop id="stop1" stop-color="rgba(38.531, 64.96, 43.026, 1)" offset="0%"></stop>                            <stop id="stop2" stop-color="rgba(84.857, 178.799, 167.661, 1)" offset="100%"></stop>                        </linearGradient>                    </defs>                <path fill="url(#sw-gradient)" d="M24.1,-35.5C29.3,-29.5,30,-19.7,30.4,-11.5C30.7,-3.3,30.7,3.3,28.5,9.1C26.4,14.9,22.2,19.8,17.1,23.6C12,27.3,6,30,-0.5,30.7C-7,31.4,-13.9,30.1,-21.3,27C-28.6,24,-36.4,19.1,-37.8,12.8C-39.2,6.4,-34.3,-1.6,-30.7,-9.1C-27,-16.6,-24.6,-23.6,-19.7,-29.6C-14.8,-35.7,-7.4,-40.8,1.1,-42.2C9.5,-43.7,19,-41.4,24.1,-35.5Z" width="100%" height="100%" transform="translate(50 50)" stroke-width="0" style="transition: 0.3s;"></path>              </svg>