<?xml version="1.0" standalone="no"?><svg xmlns="http://www.w3.org/2000/svg" viewBox="0 0 1440 320"><path fill="#3b4b39" fill-opacity="1" d="M0,128L26.7,138.7C53.3,149,107,171,160,186.7C213.3,203,267,213,320,224C373.3,235,427,245,480,229.3C533.3,213,587,171,640,160C693.3,149,747,171,800,192C853.3,213,907,235,960,208C1013.3,181,1067,107,1120,85.3C1173.3,64,1227,96,1280,133.3C1333.3,171,1387,213,1413,234.7L1440,256L1440,320L1413.3,320C1386.7,320,1333,320,1280,320C1226.7,320,1173,320,1120,320C1066.7,320,1013,320,960,320C906.7,320,853,320,800,320C746.7,320,693,320,640,320C586.7,320,533,320,480,320C426.7,320,373,320,320,320C266.7,320,213,320,160,320C106.7,320,53,320,27,320L0,320Z"></path></svg>